<?xml version="1.0" encoding="utf-8"?>
<!-- Generator: Adobe Illustrator 20.1.0, SVG Export Plug-In . SVG Version: 6.00 Build 0)  -->
<svg version="1.1" id="Layer_1" xmlns="http://www.w3.org/2000/svg" xmlns:xlink="http://www.w3.org/1999/xlink" x="0px" y="0px"
	 viewBox="0 0 98.2 64.8" style="enable-background:new 0 0 98.2 64.8;" xml:space="preserve">
<style type="text/css">
	.st0{fill:#FFFFFF;}
	.st1{fill:#C9323E;}
</style>
<g>
	<path class="st0" d="M95.7,15.1c-1-3.3-2.7-7.5-5.9-10.9c-1.3-1.4-3.4-3.2-6.3-3.4L82,0.6C77,0.3,71.8,0,66.7,0
		C62,0,57,0.2,50.9,0.7c-4.8,0.4-10.5,0.9-16.2,1.9c-5.8,1-11.7,2.3-17.2,3.6c-4,1-7.8,2.4-11.2,4.3c-3.1,1.7-5,4.2-5.6,7.4
		c-0.4,2-0.7,3.9-0.7,5.9c0,4.6,0.5,9.5,1.7,14.9c0.7,3.2,1.5,6.5,2.3,9.7c0.4,1.8,0.9,3.6,1.3,5.3c0.7,2.8,2.9,2.8,3.8,2.6
		c1.2-0.2,2.4-0.3,3.6-0.5l0.4,0c0.9-0.1,1.9-0.2,2.8-0.3c0.6,2.6,2,4.8,3.9,6.5c2.3,1.9,5,2.9,7.8,2.9c0.4,0,0.9,0,1.3-0.1
		c3.3-0.4,6.2-1.9,8.3-4.5c1.7-2.1,2.6-4.8,2.7-7.6l21.3-2.4c0.3,3.1,1.6,5.9,3.8,8c2.6,2.5,6.2,3.7,9.8,3.2
		c3.3-0.4,6.1-1.9,8.1-4.5c2.2-2.8,3-6,2.5-9.5l1-0.1c2.2-0.3,4.4-0.5,6.6-0.7c1.8-0.2,2.5-1.5,2.7-1.9c1.4-2.9,2.1-6.2,2.3-10.4
		C98.5,27.8,97.7,21.3,95.7,15.1z M91.7,34c-0.1,1.6-0.5,3.2-0.8,4.9c-0.1,0.6-0.2,1.1-0.4,1.7c-2.7,0.3-5.4,0.6-7.8,0.9
		C80,38.2,76,36.5,71.9,37c-4,0.5-7.5,2.9-9.5,6.6c-2.3,0.2-4.6,0.5-6.9,0.8l-4.4,0.5c-2.5,0.3-4.9,0.6-7.4,0.9
		c-0.8,0.1-1.7,0.2-2.5,0.3c-1,0.1-1.9,0.2-2.9,0.3c-2.7-4.4-6.8-6.6-12-6.2c-4.6,0.3-9,4.1-10.3,8.7c-1.5,0.1-3.1,0.3-5.1,0.6
		c-0.4-1.9-0.9-3.7-1.3-5.6c-0.6-2.7-1.2-5.4-1.8-8.1C8,35.9,8.3,36,8.6,36c0.6,0,1.1,0.1,1.7,0.1c0.3,0,0.5,0,0.8,0l2.8,0v-9.6
		c0-0.1,0-0.2,0-0.3c0,0,0.1,0,0.1,0c0.6-0.1,1.3,0,2,0c0,0,0,0,0,0c-0.2,2.1,0.1,4.2,1.1,5.9c1.8,3.1,5,4.2,8,4.2
		c1.9,0,3.8-0.4,5.1-1.1c1-0.5,1.4-1.5,1.5-2.3c0-0.4,0-0.7,0-1.1c0.9,1.9,2.4,3.3,4.2,4c1.8,0.6,3.8,0.5,5.7-0.4
		c1.1,0.9,2.5,0.7,3.2,0.7c0.2,0,0.5,0,0.6,0l1.5,0.2v0l0.4,0l0.3,0v0l1.4,0c1,0,1.9,0,2.9-0.1c2.3,0,4.7-0.1,7-0.3
		c2-0.2,3.6-1.4,4.6-3.1c0.7,1.8,2.2,3,4.4,3.4c0.4,0.1,0.9,0.1,1.3,0.1c1,0,1.9-0.2,2.7-0.6l0,0.4H74c0.3,0,0.5,0,0.8,0
		c0.5,0,1,0,1.5,0c1,0.1,1.7-0.2,2.3-0.7c0,0,0.1-0.1,0.1-0.1l0.9,0.2c0.4,0.1,0.8,0.2,1.2,0.3c0.9,0.2,1.9,0.4,2.9,0.5
		c0.5,0.1,1,0.1,1.4,0.1c1.9,0,3.4-0.5,4.8-1.5c0.7-0.6,1.3-1.3,1.8-2C91.7,33.2,91.7,33.6,91.7,34z M73.5,55.1
		c-3.2,0-5.7-2.4-5.7-5.7c0-3.2,2.5-5.7,5.6-5.7c0,0,0,0,0,0c1.5,0,3,0.6,4.1,1.7c1.1,1.1,1.7,2.5,1.7,4
		C79.2,52.6,76.7,55.1,73.5,55.1C73.5,55.1,73.5,55.1,73.5,55.1z M22.1,52.2c0.1-1.4,0.8-2.8,1.9-3.8c1.1-0.9,2.4-1.4,3.7-1.4
		c0.1,0,0.3,0,0.4,0c3.7,0.3,5.3,3.2,5.3,5.9v0c0,1.4-0.6,2.8-1.7,3.9c-1.2,1.1-2.7,1.7-4.2,1.6c-1.5-0.1-2.9-0.8-4-1.9
		C22.5,55.3,22,53.8,22.1,52.2z M8.8,16.6c2.5-1.6,5.4-2.6,8-3.4c6-1.9,12.5-3.3,20.1-4.4C42.4,8,47.2,7.5,51.7,7.2
		c6.4-0.4,12.8-0.7,19-0.7c3.1,0,6.3,0.2,9.4,0.5C81,7,81.9,7.1,82.8,7.2c0.8,0.1,1.6,0.5,2.6,1.7c1.6,1.8,2.8,4,3.9,7.3
		c0.3,0.9,0.6,1.9,0.9,2.9c-0.3-0.2-0.6-0.3-0.9-0.4l-0.3-0.1c-1.1-0.2-2.3-0.4-3.6-0.4c0,0,0,0,0,0c-2.3,0-4.2,0.9-5.7,2.5
		c-0.1,0.1-0.1,0.2-0.2,0.2l-0.2-1.9h-7.3v9.2c0,0.3,0,0.5,0,0.6c-0.1,0-0.2,0.1-0.5,0.2c-0.2,0.1-0.4,0.1-0.5,0
		c0-0.1-0.1-0.2-0.1-0.5l0-6.5c0-0.3,0-0.6,0-0.8L70.6,19H64c-0.1-0.8-0.3-1.5-0.6-2.2c-0.9-1.8-2.5-3-4.6-3.2
		c-2.3-0.3-4.6-0.2-6.8-0.2c-0.9,0-1.9,0.1-2.9,0.1h-1.3v-0.2h-7.5v5.2c-3.6-0.3-6.4,1-8.1,3.8c-1-1.9-2.5-3.1-4.5-3.7
		c-3.1-1-6.3-0.3-8.7,1.7c-0.4-0.9-1.2-1.6-2.1-1.7c-1.2-0.2-2.3-0.1-3.3,0.3l0-0.3L7.2,19c0-0.2,0.1-0.4,0.1-0.6
		C7.4,18,7.6,17.3,8.8,16.6z M91.4,25.6c0,0.2,0,0.3,0.1,0.5c0,0,0-0.1-0.1-0.1L91.4,25.6z M79.5,28.3
		C79.5,28.2,79.5,28.2,79.5,28.3C79.5,28.2,79.5,28.2,79.5,28.3L79.5,28.3z M62.7,23.9c0.1-0.2,0.3-0.4,0.4-0.6
		c0.1-0.1,0.1-0.2,0.2-0.3c0,0.3,0,0.6,0,0.9c0,0.2,0,0.4,0,0.5C63.1,24.2,62.9,24,62.7,23.9z M55.9,21.4c0,0-0.1,0-0.2,0
		c-0.2,0-0.3,0-0.5,0v-1.2c0.2,0,0.4,0,0.5,0c0.1,0,0.1,0,0.1,0c0,0,0,0,0,0c0,0.1,0.1,0.3,0.1,0.8C56,21.3,55.9,21.4,55.9,21.4z
		 M55.2,27.3c0.4,0,0.8,0,1.2,0.1c0.3,0,0.3,0.7,0.3,0.9c0,0.7-0.1,0.7-0.5,0.8c-0.3,0-0.7,0-1.1,0V27.3z M40.3,29
		c-0.4,0.2-0.8,0.2-1,0c-0.3-0.2-0.5-0.6-0.5-1.1c-0.1-0.8,0-1.6,0.1-2.3c0-0.2,0.1-0.3,0.3-0.4c0.1,0,0.3-0.1,0.5-0.1
		c0.2,0,0.4,0,0.6,0.1c0,0.4,0,0.8,0,1.2l0,0.7c0,0.2,0,0.4,0,0.6C40.3,28.1,40.3,28.5,40.3,29z"/>
	<g>
		<path class="st1" d="M37.9,50.9c0.7,6.6-3.7,11.3-9.1,11.9c-2.8,0.3-5.4-0.6-7.6-2.4c-2.2-1.8-3.3-4.2-3.6-7.1
			c-1.6,0.2-3.2,0.3-4.7,0.5c-1.4,0.2-2.8,0.3-4.2,0.5c-1,0.2-1.3-0.2-1.5-1.1c-1.2-5-2.5-9.9-3.6-15C2.6,33.4,2,28.6,2,23.8
			c0-1.8,0.3-3.7,0.7-5.5c0.5-2.7,2.2-4.7,4.6-6c3.4-1.9,7-3.2,10.7-4.1C23.6,6.8,29.3,5.5,35,4.6c5.3-0.9,10.7-1.4,16.1-1.9
			C56.3,2.3,61.5,2,66.7,2c5.6,0,11.1,0.4,16.7,0.7c2,0.1,3.6,1.3,5,2.8c2.7,2.9,4.2,6.4,5.4,10.2c1.9,6,2.7,12.3,2.3,18.6
			c-0.2,3.3-0.7,6.6-2.1,9.7c-0.2,0.5-0.5,0.7-1.1,0.8c-2.8,0.3-5.6,0.6-8.4,0.9c-0.4,0.1-0.9,0.1-1.4,0.2c1.1,3.6,0.7,7-1.7,9.9
			c-1.7,2.2-4,3.4-6.7,3.7c-5.8,0.7-11.9-3.8-11.4-11.5C54.8,49,46.4,50,37.9,50.9z M4.3,24.3c0.4,3.7,0.6,7,1.2,10.3
			c1,5.4,2.4,10.6,3.6,16c0.2,1.1,0.7,1.1,1.6,1c1.9-0.3,3.9-0.5,5.8-0.7c0.8-0.1,1.2-0.3,1.3-1.1c0.9-3.9,4.7-7.2,8.6-7.5
			c4.7-0.4,8.1,1.6,10.4,5.6c0.3,0.5,0.5,0.7,1.1,0.6c2-0.2,4-0.4,6-0.7c3.1-0.4,6.1-0.7,9.2-1.1c3.3-0.4,6.6-0.8,10-1.1
			c0.6-0.1,0.8-0.3,1.1-0.8c3.3-6.9,12.4-7.9,17.2-1.9c0.4,0.5,0.7,0.6,1.3,0.6c2.9-0.3,5.7-0.7,8.6-1c0.6-0.1,1-0.3,1.1-0.9
			c0.5-2.5,1.2-4.9,1.3-7.5c0.4-6.4-0.5-12.6-2.5-18.6c-1-2.9-2.2-5.6-4.3-7.9c-1.1-1.2-2.3-2.2-3.9-2.4c-4.1-0.3-8.2-0.7-12.3-0.7
			c-6.4,0-12.8,0.3-19.1,0.7c-5,0.3-10,0.9-14.9,1.6c-6.9,1-13.8,2.4-20.4,4.5c-2.9,0.9-5.9,2-8.5,3.7c-1.2,0.8-2.1,1.7-2.4,3.1
			C4.9,20.2,4.6,22.4,4.3,24.3z M73.5,57.1c4.3,0,7.7-3.4,7.7-7.6c0-4.3-3.5-7.7-7.8-7.7c-4.3,0-7.6,3.4-7.6,7.7
			C65.8,53.7,69.2,57.1,73.5,57.1z M35.5,52.8c0-4.1-2.7-7.6-7.1-7.9c-4.2-0.3-8,3-8.2,7.1c-0.2,4.4,3,8,7.3,8.3
			C31.7,60.6,35.5,57.1,35.5,52.8z"/>
		<path class="st1" d="M49.2,15.4c3.2,0,6.3-0.3,9.4,0.1c3.7,0.5,4.1,4.6,2.9,6.8c-0.5,0.8-1.5,1.3-2.1,1.9c0.4,0.2,0.9,0.4,1.4,0.7
			c1.7,1.1,2.5,2.7,2,5c-0.4,2.1-1.7,3.7-3.8,4c-3.2,0.4-6.5,0.3-9.7,0.4C49.2,27.7,49.2,21.5,49.2,15.4z M53.2,31
			c1.1,0,2.2,0.1,3.3,0c1.5-0.2,2.2-1.1,2.2-2.7c0-1.6-0.7-2.8-2.1-3c-1.1-0.1-2.3,0-3.4,0C53.2,27.2,53.2,29,53.2,31z M53.2,18.3
			c0,1.8,0,3.4,0,5.2c0.9,0,1.7,0,2.6,0c1.4,0,2.1-0.9,2.2-2.2c0.1-1.7-0.7-2.8-2-2.9C55,18.2,54.2,18.3,53.2,18.3z"/>
		<path class="st1" d="M45.9,34c-1.3-0.1-2.8,0.7-3.5-1.2c-0.5,0.2-0.8,0.4-1.2,0.6c-3,1.6-6.2,0.6-7.5-2.5c-1.1-2.5-1.1-5,0.2-7.4
			c1.6-2.8,4.5-3.4,7.5-2.8c0.3,0.1,0.5,0.2,1,0.3c0-1.1,0-2,0-2.9c0-0.9,0-1.8,0-2.8c1.2,0,2.4,0,3.5,0
			C45.9,21.5,45.9,27.7,45.9,34z M42.3,27.1c0-0.8,0-1.6,0-2.3c0-0.3-0.1-0.6-0.2-0.8c-1.4-1.2-4.6-1.2-5.1,1.2
			c-0.2,0.9-0.3,1.9-0.2,2.9c0.2,2.6,2.4,3.8,4.7,2.6c0.6-0.3,1-0.7,0.9-1.4C42.2,28.5,42.3,27.8,42.3,27.1z"/>
		<path class="st1" d="M31.6,28.1c-3.4,0-6.6,0-9.7,0c0.1,1.7,1.3,3.1,3.1,3c1.6-0.1,3.2-0.4,4.9-0.7c0,0.7,0,1.5,0,2.4
			c0,0.2-0.2,0.5-0.3,0.6c-2.9,1.4-8.3,1.6-10.6-2.3c-1.4-2.5-1.2-6.2,0.5-8.4c1.8-2.3,4.8-3.2,7.7-2.3c2.2,0.7,3.4,2.4,4,4.6
			C31.4,26,31.4,26.9,31.6,28.1z M27.9,26.3c0.2-1.5-1.3-3.1-2.9-3.1c-1.9-0.1-3.2,1.1-3.2,3.1C23.8,26.3,25.9,26.3,27.9,26.3z"/>
		<path class="st1" d="M74,34.1c-0.1-0.5-0.1-0.9-0.1-1.4c-0.5,0.3-1,0.5-1.4,0.7c-1.2,0.6-2.5,1.1-3.9,0.8
			c-1.9-0.4-3.1-1.5-3.2-3.5c-0.1-3.2,0-6.4,0-9.7c1.1,0,2.2,0,3.5,0c0,0.3,0,0.6,0,1c0,2.2,0,4.3,0,6.5c0,1.9,1.1,2.8,3,2.4
			c1.6-0.3,2.1-1,2.1-2.7c0-2.4,0-4.7,0-7.2c1.2,0,2.3,0,3.5,0c0,0.3,0.1,0.7,0.1,1c0,3.7,0,7.4,0,11c0,0.8-0.2,1.1-1.1,1.1
			C75.6,34,74.8,34.1,74,34.1z"/>
		<path class="st1" d="M80.1,33.5c0-1.3,0-2.3,0-3.1c1.6,0.3,3.2,0.6,4.8,0.8c0.4,0.1,0.9,0,1.2-0.2c0.4-0.3,1-0.8,1.1-1.2
			c0-0.4-0.5-1.1-1-1.2c-1-0.3-2.1-0.4-3.1-0.6c-2.8-0.6-3.8-4-1.9-6.1c1.1-1.3,2.5-1.8,4.2-1.8c1.2,0,2.4,0.2,3.6,0.4
			c0.2,0,0.5,0.4,0.5,0.6c0.1,0.9,0,1.7,0,2.6c-1.3-0.2-2.6-0.4-3.9-0.6c-0.4,0-0.8,0-1.1,0.2c-0.4,0.2-0.9,0.7-0.8,1
			c0,0.3,0.5,0.9,0.9,1c0.8,0.3,1.7,0.3,2.6,0.5c1.7,0.3,2.9,1.1,3.4,2.8c0.5,1.7-0.3,3.6-1.7,4.7c-1.4,1.1-3.1,1.2-4.8,1
			C82.7,34.1,81.4,33.7,80.1,33.5z"/>
		<path class="st1" d="M8.3,20.9c1.2-0.1,2.4-0.2,3.6-0.3c0,0.4,0.1,0.7,0.1,1.2c0.5-0.3,0.9-0.4,1.2-0.7c1.1-0.7,2.2-0.9,3.5-0.7
			c0.3,0,0.6,0.4,0.6,0.7c0.1,1.1,0,2.2,0,3.1c-1.2-0.1-2.4-0.3-3.6-0.1c-1.5,0.2-1.9,0.8-1.9,2.3c0,2.5,0,4.9,0,7.6
			c-1.1,0-2.1,0-3.1,0c-0.2,0-0.5-0.6-0.5-0.8c0-3.5,0-6.9,0-10.4C8.3,22.2,8.3,21.6,8.3,20.9z"/>
	</g>
</g>
</svg>
